<?xml version="1.0" encoding="utf-8"?>
<!-- Generator: Adobe Illustrator 21.0.2, SVG Export Plug-In . SVG Version: 6.00 Build 0)  -->
<svg xmlns="http://www.w3.org/2000/svg" xmlns:xlink="http://www.w3.org/1999/xlink" version="1.1" id="Layer_1" x="0px" y="0px" viewBox="0 0 100 100" enable-background="new 0 0 100 100" xml:space="preserve" width="512" height="512">
<g>
	<circle fill="#334D5C" cx="50" cy="50" r="48"/>
	<path opacity="0.1" d="M74.0100098,26.5999756l-0.1600342-0.1599731l-0.0099487,0.0100098   C71.2000122,24.0299683,67.3699951,22.5,63.0900269,22.5c-7.9500122,0-14.4000244,5.2600098-14.4000244,11.75   c0,3.9899902,2.4500122,7.5199585,6.1900024,9.6400146c-0.3400269,1.0499878-0.8099976,2.2099609-1.4400024,3.2399902   l-5.8900146-5.8900146c0,0-1.25-2.5300293-8.5100098-2.5700073c-7.2599487,0.039978-8.5,2.5700073-8.5,2.5700073   c-0.4899902,1.0899658-0.0799561,5.3499756,0.1600342,7.4699707C29.9799805,49,29.460022,49.7999878,29.460022,51.0499878   c0,1.539978,0.789978,3.210022,1.7799683,3.2999878c0.4700317,1.7000122,1.3400269,3.2600098,2.4799805,4.4700317v3.1699829   l-2.1999512,0.5700073L26.5,63.8399658c-1.9400024,0.5-3.3400269,2.1900024-3.4500122,4.1900024L22.5,77.5l19.894104,19.894104   C44.8720093,97.7886963,47.4110107,98,50,98c26.3200073,0,47.6811523-21.1864624,47.9857178-47.4343262L74.4400024,27.0199585   C74.2999878,26.8800049,74.1599731,26.7399902,74.0100098,26.5999756z"/>
	<g>
		<g>
			<g>
				<path fill="#F6C358" d="M44.430069,61.9936867h-0.0005188V58.393528H33.7184944v3.6001587l-2.1985092,0.5622978      c0.4717979,3.752243,3.673893,6.6547394,7.5541229,6.6547394c3.8800583,0,7.0823288-2.9025421,7.5539551-6.6548271      L44.430069,61.9936867z"/>
				<rect x="35.8900719" y="64.9368591" fill="#E1E6E9" width="6.4667325" height="8.8506546"/>
				<path fill="#FCD462" d="M46.8243332,48.5869751c-0.1174049-0.3474846-0.8720322-5.0264282-1.0294113-5.3457985H31.6366997      c-0.1573792,0.3193703-0.1955109,4.9983139-0.3129177,5.3457985c-1.0290127,0.0011864-1.8628635,0.8670692-1.8628635,2.458744      c0,1.5491829,0.7899628,3.2146683,1.7809429,3.3046761c1.0564632,3.8432999,4.1630154,6.9642639,7.8321972,6.9642639      c3.6691475,0,6.7756996-3.1209641,7.8321953-6.9642639c0.9909477-0.0899887,1.7809258-1.7554932,1.7809258-3.3046761      C48.6871796,49.4540443,47.853344,48.5881615,46.8243332,48.5869751z"/>
				<path fill="#64798A" d="M47.5459747,41.2418671c0,0-1.2423286-2.5368042-8.5044441-2.5751991      c-7.262289,0.0383949-8.5046177,2.5751991-8.5046177,2.5751991c-0.6526241,1.4617653,0.3085575,8.6910439,0.3085575,8.6910439      l0.8460312-2.576622c0.3675117-1.2300034,1.2685318-1.4617653,1.2685318-1.4617653h5.8644714      c0.3140755,0,0.6221123-0.0866623,0.8899879-0.2505112l2.8587189-1.7483864      c-0.1413498,0.9673843-0.3566513,2.0312157,0.2692566,1.9988976h2.2805595c0,0,0.9008484,0.2317619,1.2683601,1.4617653      l0.8460312,2.576622C47.2374191,49.9329109,48.1987724,42.7036324,47.5459747,41.2418671z"/>
				<g>
					<polygon fill="#D15241" points="41.512085,72.705452 36.734787,72.705452 37.8436584,67.9503021 39.0990448,67.6697998        39.1269684,67.6629486 39.154808,67.6697998 40.4032135,67.9503021      "/>
					<polygon fill="#E56353" points="40.4081383,68.0072708 41.4091225,66.3770905 40.5247307,64.9368591 37.7220612,64.9368591        36.8377533,66.3770905 37.8386536,68.0072708      "/>
				</g>
				<path fill="#27A2DB" d="M33.7184944,61.9936867l-7.2170277,1.8472176      c-1.9429531,0.5002136-3.3377895,2.1931229-3.4530964,4.1939011L22.5000172,77.5h16.5736446v-4.794548L33.7184944,61.9936867z"/>
				<path fill="#2D93BA" d="M55.108696,68.0348053c-0.1154251-2.0007782-1.5197716-3.6936874-3.462841-4.1939011      l-7.215786-1.8472176L39.0736618,72.705452V77.5h16.5736427L55.108696,68.0348053z"/>
				<polygon fill="#FFFFFF" points="33.7176514,61.9936485 36.3956566,67.9792633 39.0736618,64.9377289     "/>
				<polygon fill="#FFFFFF" points="39.0609245,64.9377289 41.7389297,67.9792633 44.416935,61.9936485     "/>
				<polygon fill="#1C75A1" points="39.0740509,72.705452 44.430069,61.9936867 46.9079018,65.4838562 44.4782028,65.8550568       45.3218498,67.8123169     "/>
				<polygon fill="#2D93BA" points="39.0736618,72.705452 33.7176399,61.9936867 31.239809,65.4838562 33.6695061,65.8550568       32.8258629,67.8123169     "/>
			</g>
			<rect x="44.2915764" y="73.7875137" fill="#1C75A1" width="6.1378117" height="0.9239716"/>
		</g>
		<path fill="#D15241" d="M63.0936127,22.5c-7.9564209,0-14.4063721,5.2588501-14.4063721,11.7460327    c0,3.9968262,2.4533691,7.5222168,6.1939697,9.6438599c-0.5706787,1.7884521-1.520752,3.890564-3.0379639,5.1255493    c0,0,4.9504395-0.4021606,8.5498047-3.2368774c0.8756104,0.1355591,1.7764893,0.2134399,2.7005615,0.2134399    c7.9564209,0,14.4063721-5.2588501,14.4063721-11.7459717C77.4999847,27.7588501,71.0500336,22.5,63.0936127,22.5z"/>
		<g>
			<g>
				<polygon fill="#FFFFFF" points="70.625885,31.5205631 71.7643585,35.0244331 75.4485474,35.0244331 72.4679794,37.1899414       73.6064529,40.6938095 70.625885,38.5282974 67.6453171,40.6938095 68.7837906,37.1899414 65.8032227,35.0244331       69.4874115,35.0244331     "/>
				<polygon fill="#FFFFFF" points="55.3964653,31.5205631 56.5349388,35.0244331 60.2191238,35.0244331 57.2385559,37.1899414       58.3770332,40.6938095 55.3964653,38.5282974 52.4158974,40.6938095 53.5543709,37.1899414 50.5738029,35.0244331       54.257988,35.0244331     "/>
			</g>
			<polygon fill="#FFFFFF" points="63.0936127,25.0653095 64.2320862,28.5691757 67.916275,28.5691757 64.9357071,30.7346859      66.0741806,34.2385521 63.0936127,32.0730438 60.1130447,34.2385521 61.2515221,30.7346859 58.2709541,28.5691757      61.9551353,28.5691757    "/>
		</g>
	</g>
</g>
</svg>
