<svg height="512" viewBox="0 0 128 128" width="512" xmlns="http://www.w3.org/2000/svg"><g id="Circle_Grid" data-name="Circle Grid"><circle cx="63.972" cy="64" fill="#3b5059" r="64"/></g><g id="icon"><path d="m101.426 37.99h-74.908a3.545 3.545 0 0 0 -3.546 3.546v49.864a3.545 3.545 0 0 0 3.546 3.546h74.908a3.545 3.545 0 0 0 3.546-3.546v-49.864a3.545 3.545 0 0 0 -3.546-3.546zm-30.088 6.649h-14.733a1.55 1.55 0 0 1 -1.551-1.551 1.551 1.551 0 0 1 1.551-1.552h14.733a1.552 1.552 0 0 1 1.552 1.552 1.551 1.551 0 0 1 -1.552 1.551z" fill="#2cbfae"/><path d="m27.293 50.18h73.357v40.705h-73.357z" fill="#eeefee"/><path d="m47.666 59.28a4.492 4.492 0 1 1 -4.489-4.489 4.49 4.49 0 0 1 4.489 4.489z" fill="#69b0ee"/><path d="m51.864 71.714h-17.382a8.691 8.691 0 1 1 17.382 0z" fill="#69b0ee"/><g fill="#dbd8dd"><path d="m59.096 54.791h37.676v2.364h-37.676z"/><path d="m59.096 62.07h37.676v2.364h-37.676z"/><path d="m59.096 69.35h37.676v2.364h-37.676z"/><path d="m32.945 76.629h63.827v2.364h-63.827z"/><path d="m32.945 83.909h63.827v2.364h-63.827z"/></g><path d="m56.769 25.026h14.405a0 0 0 0 1 0 0v17.174a.886.886 0 0 1 -.886.886h-12.633a.886.886 0 0 1 -.886-.886v-17.174a0 0 0 0 1 0 0z" fill="#ef5261"/></g></svg>