<svg height="512" viewBox="0 0 128 128" width="512" xmlns="http://www.w3.org/2000/svg"><g id="Circle_Grid" data-name="Circle Grid"><circle cx="64" cy="64" fill="#3b5059" r="64"/></g><g id="icon"><path d="m86.564 47.82v55.13a2.05 2.05 0 0 1 -2.05 2.05h-41.028a2.05 2.05 0 0 1 -2.05-2.05v-55.13a2.051 2.051 0 0 1 .529-1.374l13.72-15.19a2.049 2.049 0 0 1 1.521-.676h4.835a11.951 11.951 0 0 0 -.976 4.755 12.1 12.1 0 0 0 .257 2.487v.008a4.275 4.275 0 1 0 6.589 5.055 4.219 4.219 0 0 0 .367-1.724 4.269 4.269 0 0 0 -4.146-4.271 9.152 9.152 0 0 1 1.2-6.31h5.458a2.046 2.046 0 0 1 1.521.676l8.936 9.89 1.981 2.194 2.8 3.106a2.05 2.05 0 0 1 .536 1.374z" fill="#2cbfae"/><g fill="#eeefee"><path d="m73.664 23a12.611 12.611 0 0 0 -11.623 7.58 11.951 11.951 0 0 0 -.976 4.755 12.1 12.1 0 0 0 .257 2.487v.008a12.318 12.318 0 0 0 4.534 7.183 4.233 4.233 0 0 0 2.055-2.128 9.377 9.377 0 0 1 -3.779-5.995 9.152 9.152 0 0 1 1.2-6.31 9.706 9.706 0 0 1 8.328-4.645 9.542 9.542 0 0 1 9.657 9.4 9.177 9.177 0 0 1 -2.07 5.811l1.981 2.194a12.119 12.119 0 0 0 3.024-8.005 12.481 12.481 0 0 0 -12.588-12.335z"/><path d="m65.253 76.032q5.31 1.093 7.218 3.181a8.114 8.114 0 0 1 1.906 5.687 9.6 9.6 0 0 1 -2.42 6.521 9.143 9.143 0 0 1 -6.7 3.009v3.32h-2.296v-3.277q-8.739-.965-9.338-9.4h4.155q.471 5.353 5.183 6.147v-11.974q-8.673-1.735-8.674-8.461a8.188 8.188 0 0 1 2.345-6.1 9.983 9.983 0 0 1 6.329-2.685v-3.3h2.292v3.3q7.624.579 8.374 7.775h-4.177a4.48 4.48 0 0 0 -4.2-4.519zm-2.292-.47v-10.345q-4.518.793-4.519 5.247a4.4 4.4 0 0 0 1.258 3.491 7.827 7.827 0 0 0 3.261 1.607zm2.292 15.656q4.947-.618 4.947-6.061a5.2 5.2 0 0 0 -1.006-3.428 7.726 7.726 0 0 0 -3.94-1.97z"/></g></g></svg>