<svg height="512" viewBox="0 0 128 128" width="512" xmlns="http://www.w3.org/2000/svg"><g id="Circle_Grid" data-name="Circle Grid"><circle cx="64" cy="64" fill="#2cbfae" r="64"/></g><g id="icon"><path d="m64.613 29.319h-1.3v-1.219a2.39 2.39 0 0 1 1.547-2.2 2.261 2.261 0 0 0 .926-.663 2.428 2.428 0 0 0 -1.786-4.02 2.37 2.37 0 0 0 -1.736.7 2.4 2.4 0 0 0 -.672 1.237.632.632 0 0 1 -.628.489.652.652 0 0 1 -.635-.789 3.721 3.721 0 1 1 5.016 4.246 1.1 1.1 0 0 0 -.732 1z" fill="#eeefee"/><path d="m54.492 35.369v3.493l8.137 3.408 8.896-2.94 3.745-3.313-.746-1.076h-14.955z" fill="#dbd8dd"/><path d="m51.739 33.658c12.856-6.716 24.521 0 24.521 0l-1.08 3.025a34.7 34.7 0 0 0 -21.715 0 6.257 6.257 0 0 1 -1.726-3.025z" fill="#bbbbcd"/><path d="m107.32 54.2-12.964 13.434-3.956-3.189-3.282-2.645v42.28h-46.234v-42.28l-7.238 5.833-12.964-13.433 16.17-15.077a5.182 5.182 0 0 1 2.61-1.31l11.9-2.16 12.529 5.047 12.747-5.043 11.9 2.16a5.175 5.175 0 0 1 2.614 1.31l12.572 11.723z" fill="#f6c863"/><path d="m60.542 40.194h6.698v20.742h-6.698z" fill="#eeefee"/><path d="m75.918 35.225-11.118-6.048a1.729 1.729 0 0 0 -1.723-.023l-10.89 6.071 1.513 4.285 10.245-5.222 8.7 4.07z" fill="#575b6d"/><path d="m74.849 43.539-5.068 5.406-2.541-3.845v1.573l-3.24-4.91-1.033-1.569-.32-.484 1.1-.341c.086-.026.173-.052.259-.082.086.03.173.056.255.082l1.1.341-.026.039c2.977-1.024 10-3.673 10.932-6.089l.333.852a8.618 8.618 0 0 1 -1.751 9.027z" fill="#dbd8dd"/><path d="m74.849 43.539-5.068 5.406-2.541-3.845-2.723-4.118-.517-.788s.514-.16 1.331-.445c2.977-1.024 10-3.673 10.932-6.089l.333.852a8.618 8.618 0 0 1 -1.747 9.027z" fill="#eeefee"/><path d="m64.517 40.981-.517.782-3.458 5.237v-6.806h2.424l-.294-.441c.817.281 1.327.441 1.327.441z" fill="#dbd8dd"/><path d="m64 40.194-3.457 5.237-2.321 3.514-5.073-5.406a8.627 8.627 0 0 1 -1.742-9.027l.333-.856c.934 2.42 7.956 5.069 10.933 6.1.816.278 1.327.438 1.327.438z" fill="#eeefee"/><path d="m65.221 47.088a1.33 1.33 0 1 1 -1.333-1.328 1.329 1.329 0 0 1 1.333 1.328z" fill="#575b6d"/><path d="m65.221 52.232a1.33 1.33 0 1 1 -1.333-1.332 1.329 1.329 0 0 1 1.333 1.332z" fill="#575b6d"/><path d="m65.221 57.376a1.33 1.33 0 1 1 -1.333-1.328 1.33 1.33 0 0 1 1.333 1.328z" fill="#575b6d"/><g fill="#eeefee"><path d="m107.32 54.204-12.964 13.43-3.954-3.189 13.322-13.595z"/><path d="m20.68 54.204 12.964 13.43 3.954-3.189-13.322-13.595z"/><path d="m40.884 101.333h46.234v4.667h-46.234z"/></g></g></svg>