<svg height="512" viewBox="0 0 128 128" width="512" xmlns="http://www.w3.org/2000/svg"><g id="Circle_Grid" data-name="Circle Grid"><circle cx="64" cy="64" fill="#3b5059" r="64"/></g><g id="icon"><path d="m24 44.333v54.75a2.417 2.417 0 0 0 2.417 2.417h75.166a2.417 2.417 0 0 0 2.417-2.417v-54.75z" fill="#eab54e"/><path d="m98.5 28.139a2.416 2.416 0 0 0 -2.292-1.639h-64.416a2.416 2.416 0 0 0 -2.292 1.639l-5.5 16.194h80z" fill="#f6c863"/><path d="m70.438 26.5h-12.876l-2.604 17.833h18.084z" fill="#eeefee"/><path d="m54.958 44.333v14.474l4.125-3.39 2.459 3.39 2.458-3.39 2.458 3.39 2.459-3.39 4.125 3.39v-14.474z" fill="#dbd8dd"/><g fill="#575b6d"><path d="m40.402 81.471-4.914-7.706-4.914 7.706h3.094v10.403h3.64v-10.403z"/><path d="m51.432 81.471-4.914-7.706-4.914 7.706h3.094v10.403h3.64v-10.403z"/><path d="m31.759 93.379h18.487v2.261h-18.487z"/></g></g></svg>