<?xml version="1.0" encoding="utf-8"?>
<!-- Generator: Adobe Illustrator 21.0.2, SVG Export Plug-In . SVG Version: 6.00 Build 0)  -->
<svg xmlns="http://www.w3.org/2000/svg" xmlns:xlink="http://www.w3.org/1999/xlink" version="1.1" id="Layer_1" x="0px" y="0px" viewBox="0 0 100 100" enable-background="new 0 0 100 100" xml:space="preserve" width="512" height="512">
<g>
	<circle fill="#45B39C" cx="50" cy="50" r="48"/>
	<path opacity="0.1" d="M97.8621216,53.4620972L68.5300293,24.1300049c0-0.1600342-0.1200562-0.2800293-0.2700195-0.2800293   H53.0599976c-0.1500244,0-0.2700195,0.1199951-0.2700195,0.2800293v2.4400024l-2-2l-0.7699585,0.7699585l-1.1799927-1.1799927   l-1.1800537,1.1799927l-1.1900024-1.1799927l-1.1799927,1.1799927l-1.1799927-1.1799927l-1.1799927,1.1799927L41.75,24.1599731   l-1.1799927,1.1799927l-1.1799927-1.1799927l-1.1900024,1.1799927l-1.1799927-1.1799927l-1.1799927,1.1799927l-1.1800537-1.1799927   l-1.1799927,1.1799927l-0.7699585-0.7699585v11.3499756h-2.8800049v9.4299927L22.5,64.3200073v11.8299561l21.4580688,21.4581299   C45.9385376,97.8569946,47.9520264,98,50,98C75.3441162,98,96.0858765,78.3536377,97.8621216,53.4620972z"/>
	<g>
		<g>
			<g>
				<rect x="57.3839226" y="30.4262714" fill="#64798A" width="6.5528255" height="6.0866165"/>
				<rect x="57.3839226" y="30.4262714" fill="#3A556A" width="6.5528255" height="2.4864476"/>
			</g>
			<path fill="#FFFFFF" d="M68.2581177,23.8506641H53.0625572c-0.1520996,0-0.2756348,0.1234131-0.2756348,0.2756348v7.6671753     c0,0.1522217,0.1235352,0.2756329,0.2756348,0.2756329h15.1955605c0.1523438,0,0.2756348-0.1234112,0.2756348-0.2756329     v-7.6671753C68.5337524,23.9740772,68.4104614,23.8506641,68.2581177,23.8506641z"/>
			
				<rect x="57.5427933" y="21.0781517" transform="matrix(-1.836970e-16 1 -1 -1.836970e-16 88.620285 -32.7003784)" fill="#27A2DB" width="6.2350688" height="13.7636023"/>
			
				<rect x="60.2734833" y="23.8088398" transform="matrix(-1.836970e-16 1 -1 -1.836970e-16 91.3509674 -29.9696884)" fill="#2D93BA" width="0.7736918" height="13.7636023"/>
		</g>
		<rect x="22.5000019" y="64.3153305" fill="#DC8744" width="54.9999695" height="11.8340092"/>
		<polygon fill="#FCD462" points="70.1741943,45.3451424 29.8258076,45.3451424 22.5000038,64.3153152 77.5,64.3153152   "/>
		<polygon fill="#EBF0F3" points="33.9434586,50.5358009 30.6643982,50.5358009 31.4134598,47.9442749 34.5650826,47.9442749   "/>
		<polygon fill="#EBF0F3" points="41.0588417,50.5358009 37.7797813,50.5358009 38.2547073,47.9442749 41.4063301,47.9442749   "/>
		<polygon fill="#EBF0F3" points="48.1126366,50.5358009 44.8335762,50.5358009 45.0343628,47.9442749 48.1859856,47.9442749   "/>
		<polygon fill="#44C4A1" points="55.1664314,50.5358009 51.8873711,50.5358009 51.8140182,47.9442749 54.9656448,47.9442749   "/>
		<polygon fill="#DC8744" points="62.2202263,50.5358009 58.9411659,50.5358009 58.5936775,47.9442749 61.7453003,47.9442749   "/>
		<polygon fill="#E56353" points="69.2740173,50.5358009 65.994957,50.5358009 65.3733368,47.9442749 68.5249557,47.9442749   "/>
		<polygon fill="#EBF0F3" points="32.6003151,56.1353264 29.0459003,56.1353264 29.9231815,53.100193 33.3283463,53.100193   "/>
		<polygon fill="#EBF0F3" points="40.3080254,56.1353264 36.7536125,56.1353264 37.3098297,53.100193 40.7149925,53.100193   "/>
		<polygon fill="#EBF0F3" points="47.9541473,56.1353264 44.3997345,56.1353264 44.6348915,53.100193 48.0400543,53.100193   "/>
		<polygon fill="#EBF0F3" points="55.6002731,56.1353264 52.0458565,56.1353264 51.9599533,53.100193 55.3651161,53.100193   "/>
		<polygon fill="#EBF0F3" points="63.2463951,56.1353264 59.6919823,56.1353264 59.2850113,53.100193 62.6901741,53.100193   "/>
		<polygon fill="#27A2DB" points="70.8925171,56.1353264 67.3381042,56.1353264 66.6100693,53.100193 70.0152359,53.100193   "/>
		<polygon fill="#EBF0F3" points="31.0109138,62.7614746 27.1306629,62.7614746 28.1721497,59.1582375 31.8752136,59.1582375   "/>
		<polygon fill="#EBF0F3" points="39.4195518,62.7614746 35.5393028,62.7614746 36.1996307,59.1582375 39.9026947,59.1582375   "/>
		<polygon fill="#EBF0F3" points="47.7666016,62.7614746 43.8863525,62.7614746 44.1655235,59.1582375 47.8685875,59.1582375   "/>
		<polygon fill="#EBF0F3" points="56.1136551,62.7614746 52.2334023,62.7614746 52.1314163,59.1582375 55.8344803,59.1582375   "/>
		<polygon fill="#EBF0F3" points="64.4607086,62.7614746 60.5804558,62.7614746 60.0973129,59.1582375 63.8003731,59.1582375   "/>
		<polygon fill="#44C4A1" points="73.2647934,62.7614746 69.3845444,62.7614746 68.5202408,59.1582375 72.2233047,59.1582375   "/>
		<g>
			<rect x="29.8258076" y="35.9173851" fill="#F6C358" width="40.3175812" height="9.4277563"/>
		</g>
		<path fill="#DC8744" d="M51.04879,39.6064911H32.4492111c-0.2830086,0-0.512394,0.2294159-0.512394,0.5123978    c0,0.2829781,0.2293854,0.5123634,0.512394,0.5123634H51.04879c0.2828865,0,0.512394-0.2293854,0.512394-0.5123634    C51.5611839,39.835907,51.3316765,39.6064911,51.04879,39.6064911z"/>
		<circle fill="#FCD462" cx="49.9999847" cy="70.2323303" r="2.7250853"/>
		<path fill="#F6C358" d="M51.5134926,68.7244415c0.2186089,0.3352432,0.3482513,0.7339783,0.3482513,1.1640854    c0,1.18013-0.9566383,2.136795-2.1367912,2.136795c-0.5914993,0-1.1265297-0.2405777-1.5134583-0.6288986    c0.3812981,0.5845947,1.0384674,0.9727097,1.7884789,0.9727097c1.1801529,0,2.1367912-0.9566727,2.1367912-2.136795    C52.1367645,69.6437073,51.8984222,69.1109161,51.5134926,68.7244415z"/>
		<rect x="52.7869453" y="37.0220604" fill="#FFFFFF" width="15.7468271" height="7.21841"/>
		
			<rect x="58.0428009" y="33.7495117" transform="matrix(-1.836970e-16 1 -1 -1.836970e-16 101.2916489 -20.0290241)" fill="#44C4A1" width="5.2350688" height="13.7636023"/>
		
			<rect x="60.2734909" y="35.9801979" transform="matrix(-1.836970e-16 1 -1 -1.836970e-16 103.5223389 -17.798336)" fill="#3EA69B" width="0.7736918" height="13.7636023"/>
		<g>
			<polygon fill="#FFFFFF" points="50.0183754,25.3410816 48.8369789,24.1596851 47.6555824,25.3410816 46.4744301,24.1596851      45.2930336,25.3410816 44.1116371,24.1596851 42.9302406,25.3410816 41.7490883,24.1596851 40.5676918,25.3410816      39.3862953,24.1596851 38.2048988,25.3410816 37.0237465,24.1596851 35.84235,25.3410816 34.6609535,24.1596851      33.479557,25.3410816 32.7117348,24.5731373 32.7117348,40.1188507 50.7861977,40.1188507 50.7861977,24.5731373    "/>
		</g>
		<g>
			<rect x="34.0144691" y="27.2423878" fill="#64798A" width="7.734375" height="0.75"/>
		</g>
		<g>
			<rect x="34.0144691" y="29.3908253" fill="#64798A" width="5.8994141" height="0.75"/>
		</g>
		<g>
			<rect x="34.2918129" y="32.2648468" fill="#64798A" width="14.9150391" height="0.75"/>
		</g>
		<g>
			<rect x="34.2918129" y="34.8361359" fill="#64798A" width="14.9150391" height="0.75"/>
		</g>
		<g>
			<rect x="36.9978676" y="32.6398468" fill="#64798A" width="0.75" height="7.4790039"/>
		</g>
		<g>
			<rect x="44.8338051" y="32.6398468" fill="#64798A" width="0.75" height="7.4790039"/>
		</g>
		<g>
			<g>
				<path fill="#E56353" d="M47.1231804,31.5066051v-0.4809933c-0.6021805-0.0613976-1.1426926-0.3008213-1.621006-0.7180042      l0.4809914-0.573225c0.3689232,0.3206635,0.7485733,0.5115585,1.1400146,0.573225v-1.2783604      c-0.4965439-0.1185055-0.8601036-0.2745457-1.0906792-0.4678555c-0.2305794-0.1933098-0.3458672-0.4799213-0.3458672-0.8598366      s0.1324501-0.6906567,0.3984146-0.9324951c0.2659683-0.2415676,0.6118355-0.3732109,1.0381317-0.3951969v-0.3295097h0.4214745      v0.3359451c0.483139,0.0353909,0.9400024,0.2000103,1.3705902,0.4943981l-0.4284439,0.6062031      c-0.2900963-0.2064476-0.6037903-0.3338013-0.9421463-0.382328v1.238678h0.0198402      c0.5051231,0.1187744,0.8761902,0.2791042,1.1132011,0.4809933c0.2375488,0.202158,0.3560524,0.495472,0.3560524,0.8796768      c0,0.3844738-0.1362,0.697628-0.4086037,0.9389305c-0.2723999,0.2418365-0.632206,0.3734798-1.0804901,0.3954639v0.4742908      H47.1231804z M46.6582756,27.25354c-0.112072,0.0986652-0.1678391,0.2217293-0.1678391,0.3689232      c0,0.147192,0.0439682,0.2635536,0.1319122,0.349081c0.0874023,0.0857964,0.2547035,0.1681061,0.5008316,0.2472v-1.1400127      C46.9253159,27.096426,46.7703438,27.1546059,46.6582756,27.25354z M48.0454865,30.1427193      c0.1227951-0.100811,0.1844635-0.2281647,0.1844635-0.382061c0-0.1536274-0.0482597-0.2756195-0.144783-0.3657055      c-0.0970535-0.090086-0.2772255-0.1745415-0.5405121-0.2536335v1.1858597      C47.7553902,30.3054619,47.9221573,30.2437973,48.0454865,30.1427193z"/>
			</g>
		</g>
		<polygon fill="#E1E6E9" points="27.1306801,62.7614288 31.0109291,62.7614288 31.2507973,61.7614288 27.4197426,61.7614288   "/>
		<polygon fill="#E1E6E9" points="35.5393715,62.7614288 39.4194984,62.7614288 39.5536537,61.7614288 35.722599,61.7614288   "/>
		<polygon fill="#E1E6E9" points="43.8862953,62.7614288 47.7666664,62.7614288 47.7949867,61.7614288 43.96381,61.7614288   "/>
		<polygon fill="#E1E6E9" points="52.2334633,62.7614288 56.1135902,62.7614288 56.0361977,61.7614288 52.205143,61.7614288   "/>
		<polygon fill="#E1E6E9" points="60.5803871,62.7614288 64.4607544,62.7614288 64.2774048,61.7614288 60.4463539,61.7614288   "/>
		<polygon fill="#3EA69B" points="69.1445923,61.7614288 69.3845825,62.7614288 73.2647095,62.7614288 72.9758911,61.7614288   "/>
		<polygon fill="#E1E6E9" points="29.0459633,56.1353302 32.6002846,56.1353302 32.7481117,55.5194244 29.2239418,55.5194244   "/>
		<polygon fill="#E1E6E9" points="36.7536049,56.1353302 40.3080482,56.1353302 40.3906898,55.5194244 36.8665199,55.5194244   "/>
		<polygon fill="#E1E6E9" points="44.3997231,56.1353302 47.9541664,56.1353302 47.9716225,55.5194244 44.4474525,55.5194244   "/>
		<polygon fill="#E1E6E9" points="52.0457191,56.1353302 55.6004066,56.1353302 55.5525551,55.5194244 52.0283852,55.5194244   "/>
		<polygon fill="#E1E6E9" points="59.6919594,56.1353302 63.2464027,56.1353302 63.1336098,55.5194244 59.6094398,55.5194244   "/>
		<polygon fill="#2D93BA" points="67.1902466,55.5194244 67.3381958,56.1353302 70.892395,56.1353302 70.7144165,55.5194244   "/>
		<polygon fill="#E1E6E9" points="30.6643715,50.5357819 33.9434242,50.5357819 34.121891,49.7917023 30.8794594,49.7917023   "/>
		<polygon fill="#E1E6E9" points="37.77985,50.5357819 41.0589027,50.5357819 41.1586342,49.7917023 37.9160805,49.7917023   "/>
		<polygon fill="#E1E6E9" points="44.8335609,50.5357819 48.1126137,50.5357819 48.1336098,49.7917023 44.8911781,49.7917023   "/>
		<polygon fill="#3EA69B" points="51.887516,50.5357819 55.1663246,50.5357819 55.1087074,49.7917023 51.8662758,49.7917023   "/>
		<polygon fill="#C97339" points="58.941227,50.5357819 62.2202797,50.5357819 62.0838051,49.7917023 58.8413734,49.7917023   "/>
		<polygon fill="#D15241" points="65.8164673,49.7917023 65.9949341,50.5357819 69.2739868,50.5357819 69.0588989,49.7917023   "/>
	</g>
</g>
</svg>
