<?xml version="1.0" encoding="utf-8"?>
<!-- Generator: Adobe Illustrator 21.0.2, SVG Export Plug-In . SVG Version: 6.00 Build 0)  -->
<svg xmlns="http://www.w3.org/2000/svg" xmlns:xlink="http://www.w3.org/1999/xlink" version="1.1" id="Layer_1" x="0px" y="0px" viewBox="0 0 100 100" enable-background="new 0 0 100 100" xml:space="preserve" width="512" height="512">
<g>
	<circle fill="#E05B49" cx="50" cy="50" r="48"/>
	<path opacity="0.1" d="M18.5100098,31.289978v37.4199829L47.742981,97.9429321C48.491394,97.9776001,49.243042,98,50,98   c26.5097046,0,48-21.4902954,48-48c0-0.756958-0.0223999-1.508667-0.0570679-2.2570801L81.4899902,31.289978H18.5100098z"/>
	<g>
		<rect x="18.5145912" y="31.2924881" fill="#44C4A1" width="62.9708214" height="37.4150238"/>
		<path fill="#3EA69B" d="M21.5147095,34.2920723v31.4150352h56.9707031V34.2920723H21.5147095z M76.4854126,60.7071114    c-1.6568604,0-3,1.3431396-3,3H26.5147095c0-1.6568604-1.3431396-3-3-3V39.2920723c1.6568604,0,3-1.3431396,3-3h46.9707031    c0,1.6568604,1.3431396,3,3,3V60.7071114z"/>
		<g>
			<path fill="#3EA69B" d="M49.4906654,59.6092224v-1.6923218c-2.1187019-0.2169647-4.0204391-1.0584106-5.7033272-2.5281067     l1.692318-2.0168228c1.2980118,1.128212,2.6337585,1.8017464,4.0110092,2.0168228v-4.4977646     c-1.7470322-0.4169464-3.0261803-0.9640732-3.8374367-1.645153c-0.8112564-0.6791916-1.2168846-1.688549-1.2168846-3.0261803     c0-1.335743,0.4659996-2.4300003,1.4017754-3.2789879c0.9357758-0.8508797,2.1526642-1.3149948,3.6525459-1.3923454v-1.1584015     h1.4829063v1.1829262c1.6998672,0.1226311,3.3072891,0.7037201,4.8222656,1.7376022l-1.507431,2.1337967     c-1.0206757-0.7263603-2.1243629-1.1753807-3.3148346-1.3451805v4.3581543h0.0698051     c1.7772179,0.4169464,3.0827789,0.9829407,3.9166756,1.692318c0.8357849,0.7112656,1.2527313,1.7432632,1.2527313,3.0959854     c0,1.352726-0.4792061,2.4526405-1.4376221,3.3035164c-0.958416,0.8489914-2.2243576,1.3131065-3.80159,1.390461v1.6696815     H49.4906654z M47.8549461,44.6443481c-0.39431,0.3471413-0.5905228,0.7810707-0.5905228,1.2980118     c0,0.5188255,0.154705,0.926342,0.4641151,1.2282066c0.3075256,0.3018608,0.8961563,0.5924072,1.7621269,0.8697433v-4.0110092     C48.7944946,44.0915604,48.2492523,44.2972031,47.8549461,44.6443481z M52.7356987,54.8095932     c0.4320412-0.3546867,0.6490059-0.8037109,0.6490059-1.3451767c0-0.5395813-0.1697998-0.969738-0.5093956-1.2866936     c-0.3414841-0.3150673-0.9753952-0.6131592-1.9017372-0.8923836v4.1732597     C51.715023,55.3812485,52.3017693,55.166172,52.7356987,54.8095932z"/>
		</g>
		<g>
			<circle fill="#3EA69B" cx="71.4840164" cy="49.9995918" r="2.2523499"/>
			<circle fill="#3EA69B" cx="28.5161095" cy="49.9995918" r="2.2523499"/>
		</g>
	</g>
</g>
</svg>
