<?xml version="1.0" encoding="utf-8"?>
<!-- Generator: Adobe Illustrator 21.0.2, SVG Export Plug-In . SVG Version: 6.00 Build 0)  -->
<svg xmlns="http://www.w3.org/2000/svg" xmlns:xlink="http://www.w3.org/1999/xlink" version="1.1" id="Layer_1" x="0px" y="0px" viewBox="0 0 100 100" enable-background="new 0 0 100 100" xml:space="preserve" width="512" height="512">
<g>
	<circle fill="#334D5C" cx="50" cy="50" r="48"/>
	<path opacity="0.1" d="M58.9500122,28.6499023h-9.6199951l-0.6300049-0.6298828   c-0.1300049-0.1400146-0.3200073-0.2199707-0.5200195-0.2199707h-0.7999878l-4.3200073-4.3300781l-0.0100098-0.0100098   c-0.3300171-0.4499512-0.8200073-0.7800293-1.3699951-0.8999023C40.1199951,22.2199707,38.75,23.3900146,38.75,24.8800049   c0,0.6099854,0.2299805,1.1600342,0.6099854,1.5799561l-0.7799683,1.3400879h-4.5   c-0.4000244,0-0.7300415,0.3299561-0.7300415,0.7299805v0.119873H23.3200073c-0.4500122,0-0.8200073,0.3701172-0.8200073,0.8200684   v47.2099609c0,0.1900635,0.0599976,0.3601074,0.1799927,0.5l0.1799927,0.1800537l20.1183472,20.1236572   C45.270874,97.8197021,47.6141357,98,50,98c21.2814941,0,39.3168335-13.8548584,45.6073608-33.0327148L59.5599976,28.9199219   C59.4099731,28.75,59.1900024,28.6499023,58.9500122,28.6499023z"/>
	<g>
		<g>
			<g>
				<path fill="#DC8744" d="M58.9470825,28.6535358H23.3185158c-0.4520493,0-0.8185139,0.3664665-0.8185139,0.8185558v47.2093506      c0,0.452095,0.3664646,0.8185577,0.8185139,0.8185577h35.6285667c0.4520493,0,0.8185158-0.3664627,0.8185158-0.8185577      V29.4720917C59.7655983,29.0200024,59.3991318,28.6535358,58.9470825,28.6535358z"/>
				<rect x="24.7973728" y="32.399498" fill="#E1E6E9" width="32.6708527" height="43.1357346"/>
				<rect x="24.7973728" y="31.332098" fill="#EBF0F3" width="32.6708527" height="43.1357346"/>
				<rect x="24.7973728" y="30.138443" fill="#FFFFFF" width="32.6708527" height="43.1357346"/>
				<g>
					<path fill="#EBF0F3" d="M48.1837502,27.7983418h-4.4982948l-0.7752419-1.3390541       c0.4821358-0.5436268,0.7313232-1.2988377,0.5447121-2.1198063c-0.1983528-0.8732109-0.9037743-1.5861549-1.7781143-1.7793217       c-1.5538597-0.3433399-2.9281845,0.8298569-2.9281845,2.3240738c0,0.6066856,0.2337456,1.154253,0.6068077,1.5750542       l-0.7752419,1.3390541h-4.498291c-0.4050751,0-0.7335739,0.3284206-0.7335739,0.7336159v3.409956h15.5689964v-3.409956       C48.9173241,28.1267624,48.5888252,27.7983418,48.1837502,27.7983418z"/>
					<circle fill="#D5D6DB" cx="41.1328354" cy="24.8842602" r="0.7743778"/>
				</g>
			</g>
			<rect x="27.5429554" y="35.2142906" fill="#64798A" width="27.6787109" height="1.5"/>
			<rect x="27.5429554" y="39.1347809" fill="#64798A" width="27.6787109" height="1.5"/>
			<rect x="27.5429554" y="43.055275" fill="#64798A" width="27.6787109" height="1.5"/>
			<rect x="27.5429554" y="46.975769" fill="#64798A" width="27.6787109" height="1.5"/>
			<rect x="32.8747559" y="50.8962593" fill="#64798A" width="22.3469105" height="1.5"/>
			<rect x="32.8747559" y="54.8167534" fill="#64798A" width="22.3469105" height="1.5"/>
			<rect x="32.8747559" y="58.7372437" fill="#64798A" width="22.3469105" height="1.5"/>
			<rect x="32.8747559" y="62.6577377" fill="#64798A" width="22.3469105" height="1.5"/>
			<rect x="32.8747559" y="66.5782318" fill="#64798A" width="22.3469105" height="1.5"/>
			<rect x="27.5429554" y="50.8962593" fill="#E56353" width="2.2738161" height="1.5"/>
			<rect x="27.5429554" y="54.8167534" fill="#44C4A1" width="2.2738161" height="1.5"/>
			<rect x="27.5429554" y="58.7372437" fill="#2D93BA" width="2.2738161" height="1.5"/>
			<rect x="27.5429554" y="62.6577377" fill="#FCD462" width="2.2738161" height="1.5"/>
			<rect x="27.5429554" y="66.5782318" fill="#2F4859" width="2.2738161" height="1.5"/>
		</g>
		<g>
			<circle fill="#FCD462" cx="63.458252" cy="63.458416" r="14.0415831"/>
			<path fill="#44C4A1" d="M77.4384995,62.2436447c-0.6169586-7.185009-6.6352539-12.8267975-13.9802704-12.8267975v14.0415649     L77.4384995,62.2436447z"/>
			<path fill="#E56353" d="M63.4582291,63.4584122l7.3060303,11.9743958C74.7985077,72.9658661,77.5,68.533287,77.5,63.4584122     c0-0.4100723-0.0269089-0.8136215-0.0615005-1.2147675L63.4582291,63.4584122z"/>
			<path fill="#27A2DB" d="M52.1154823,71.7112198c2.5532227,3.5029602,6.6761627,5.7887573,11.3427467,5.7887573     c2.6800766,0,5.1756439-0.7643356,7.3060303-2.0671692l-7.3060303-11.9743958L52.1154823,71.7112198z"/>
		</g>
	</g>
</g>
</svg>
