<?xml version="1.0" encoding="utf-8"?>
<!-- Generator: Adobe Illustrator 21.0.2, SVG Export Plug-In . SVG Version: 6.00 Build 0)  -->
<svg xmlns="http://www.w3.org/2000/svg" xmlns:xlink="http://www.w3.org/1999/xlink" version="1.1" id="Layer_1" x="0px" y="0px" viewBox="0 0 100 100" enable-background="new 0 0 100 100" xml:space="preserve" width="512" height="512">
<g>
	<circle fill="#334D5C" cx="50" cy="50" r="48"/>
	<path opacity="0.1" d="M98,49.9999771c0-0.6781006-0.0232544-1.350708-0.0510864-2.0218506L77.5,27.5291519H32.5499878   L22.5,39.35923v4.2600098l0.8800049,0.8798828L22.5,45.5391617v4.25l0.8800049,0.8800049L22.5,51.7092056v4.2598877   l0.8800049,0.880127L22.5,57.8892593v4.25l35.2323608,35.2321777C80.564209,93.6724625,98,73.8763199,98,49.9999771z"/>
	<g>
		<g>
			<g>
				<g>
					<polygon fill="#44C4A1" points="67.4451675,57.8867607 22.5,57.8867607 32.5548325,46.0543633 77.5,46.0543633      "/>
					<path fill="#3EA69B" d="M33.8900528,47.0029716l-8.4424095,9.9349213h40.6626091l8.4424133-9.9349213H33.8900528z        M66.0264511,55.3566551c-1.182579,0-2.5021896,0.4247627-2.9474525,0.9487419H29.5538483       c0.445261-0.5239792-0.1524467-0.9487419-1.3350239-0.9487419l5.7550297-6.7724457       c1.182579,0,2.5021935-0.4247665,2.9474525-0.9487419h33.5251503c-0.4452591,0.5239754,0.1524506,0.9487419,1.335022,0.9487419       L66.0264511,55.3566551z"/>
					<g>
						<path fill="#3EA69B" d="M47.0541039,55.0094528l0.454792-0.5351944        c-1.4539108-0.068615-2.5851402-0.3347168-3.3913307-0.7995071l1.7498817-0.6378136        c0.6232567,0.3567963,1.3956375,0.5697975,2.3208466,0.6378136l1.2087173-1.4224052        c-1.1348877-0.1318588-1.9008408-0.3048859-2.2968407-0.5202751c-0.3965073-0.2147903-0.414772-0.5339966-0.0552979-0.9570198        c0.3589668-0.4224243,0.9856377-0.7684822,1.8817024-1.036972c0.8965683-0.2690887,1.889843-0.415863,2.9811668-0.4403229        l0.311306-0.3663445h1.0584145l-0.3178978,0.3740997c1.1803169,0.0387802,2.1714478,0.2225494,2.9749146,0.549511        l-1.649353,0.6748085c-0.5333023-0.2297096-1.200386-0.3717117-2.0044518-0.4254112l-1.1711998,1.3782539h0.0498238        c1.1564331,0.1318588,1.9361687,0.3108521,2.3407211,0.5351906c0.4053955,0.2249374,0.4256516,0.5513039,0.0621262,0.9790993        c-0.3635292,0.4277954-1.001152,0.7756386-1.9138794,1.0447273c-0.91222,0.2684898-1.940506,0.4152641-3.0870399,0.4397278        l-0.4487038,0.5280342H47.0541039z M49.9082413,50.2768517c-0.3747253,0.1097832-0.6313858,0.2470131-0.7703056,0.4104919        c-0.139431,0.1640778-0.1385231,0.2929535,0.001194,0.3884163c0.1383705,0.0954628,0.4804268,0.1873474,1.0239792,0.2750549        l1.0779076-1.2684708C50.7273941,50.1020355,50.2829666,50.1670685,49.9082413,50.2768517z M50.6600723,53.491581        c0.4036865-0.1121674,0.6792145-0.2541695,0.8247261-0.4254074c0.1450043-0.1706429,0.1394119-0.306675-0.0177956-0.4069138        c-0.1590614-0.0996399-0.5314064-0.1939087-1.1175423-0.2822113l-1.1215134,1.3197784        C49.7779465,53.6723671,50.2545319,53.6043472,50.6600723,53.491581z"/>
					</g>
					<g>
						<path fill="#3EA69B" d="M66.9418411,51.9704323c-0.3342896,0.3933907-1.3250427,0.7122993-2.2128983,0.7122993        c-0.8878517,0-1.3366051-0.3189087-1.0023117-0.7122993c0.3342972-0.3933907,1.3250427-0.7122993,2.2128983-0.7122993        S67.2761383,51.5770416,66.9418411,51.9704323z"/>
						<path fill="#3EA69B" d="M36.273674,51.9704323c-0.3342934,0.3933907-1.3250389,0.7122993-2.2128983,0.7122993        c-0.8878555,0-1.3366051-0.3189087-1.0023117-0.7122993s1.3250389-0.7122993,2.2128944-0.7122993        C36.1592178,51.2581329,36.6079674,51.5770416,36.273674,51.9704323z"/>
					</g>
				</g>
				<rect x="22.5" y="57.8867607" fill="#3EA69B" width="44.9471397" height="4.2520471"/>
				<polygon fill="#31978C" points="77.5,46.0543633 77.5,50.1805763 67.4471436,62.1388054 67.4471436,57.8867607     "/>
			</g>
			<g>
				<g>
					<polygon fill="#44C4A1" points="67.4451675,51.712471 22.5,51.712471 32.5548325,39.8800735 77.5,39.8800735      "/>
					<path fill="#3EA69B" d="M33.8900528,40.8286858l-8.4424095,9.9349174h40.6626091l8.4424133-9.9349174H33.8900528z        M66.0264511,49.1823692c-1.182579,0-2.5021896,0.4247627-2.9474525,0.9487419H29.5538483       c0.445261-0.5239792-0.1524467-0.9487419-1.3350239-0.9487419l5.7550297-6.7724495       c1.182579,0,2.5021935-0.4247627,2.9474525-0.9487419h33.5251503c-0.4452591,0.5239792,0.1524506,0.9487419,1.335022,0.9487419       L66.0264511,49.1823692z"/>
					<g>
						<path fill="#3EA69B" d="M47.0541039,48.8351631l0.454792-0.5351906        c-1.4539108-0.068615-2.5851402-0.3347206-3.3913307-0.7995071l1.7498817-0.6378136        c0.6232567,0.3567924,1.3956375,0.5697937,2.3208466,0.6378136l1.2087173-1.4224052        c-1.1348877-0.1318588-1.9008408-0.3048859-2.2968407-0.5202751c-0.3965073-0.2147942-0.414772-0.5340004-0.0552979-0.9570236        c0.3589668-0.4224243,0.9856377-0.7684784,1.8817024-1.0369682c0.8965683-0.2690887,1.889843-0.415863,2.9811668-0.4403267        l0.311306-0.3663406h1.0584145l-0.3178978,0.3740959c1.1803169,0.038784,2.1714478,0.2225494,2.9749146,0.549511        l-1.649353,0.6748085c-0.5333023-0.2297096-1.200386-0.3717117-2.0044518-0.4254074l-1.1711998,1.3782539h0.0498238        c1.1564331,0.1318588,1.9361687,0.3108521,2.3407211,0.5351906c0.4053955,0.2249336,0.4256516,0.5513,0.0621262,0.9790955        c-0.3635292,0.4277954-1.001152,0.7756424-1.9138794,1.0447273c-0.91222,0.2684937-1.940506,0.4152679-3.0870399,0.4397316        l-0.4487038,0.5280304H47.0541039z M49.9082413,44.102562c-0.3747253,0.1097832-0.6313858,0.2470131-0.7703056,0.4104958        c-0.139431,0.1640778-0.1385231,0.2929535,0.001194,0.3884163c0.1383705,0.0954628,0.4804268,0.1873474,1.0239792,0.2750549        l1.0779076-1.2684708C50.7273941,43.9277458,50.2829666,43.9927788,49.9082413,44.102562z M50.6600723,47.3172951        c0.4036865-0.1121712,0.6792145-0.2541733,0.8247261-0.4254112c0.1450043-0.170639,0.1394119-0.306675-0.0177956-0.4069099        c-0.1590614-0.0996399-0.5314064-0.1939125-1.1175423-0.2822151l-1.1215134,1.3197823        C49.7779465,47.4980774,50.2545319,47.4300613,50.6600723,47.3172951z"/>
					</g>
					<g>
						<path fill="#3EA69B" d="M66.9418411,45.7961426c-0.3342896,0.3933945-1.3250427,0.7122993-2.2128983,0.7122993        c-0.8878517,0-1.3366051-0.3189049-1.0023117-0.7122993c0.3342972-0.3933907,1.3250427-0.7122993,2.2128983-0.7122993        S67.2761383,45.4027519,66.9418411,45.7961426z"/>
						<path fill="#3EA69B" d="M36.273674,45.7961426c-0.3342934,0.3933945-1.3250389,0.7122993-2.2128983,0.7122993        c-0.8878555,0-1.3366051-0.3189049-1.0023117-0.7122993c0.3342934-0.3933907,1.3250389-0.7122993,2.2128944-0.7122993        C36.1592178,45.0838432,36.6079674,45.4027519,36.273674,45.7961426z"/>
					</g>
				</g>
				<rect x="22.5" y="51.712471" fill="#3EA69B" width="44.9471397" height="4.2520471"/>
				<polygon fill="#31978C" points="77.5,39.8800735 77.5,44.0062904 67.4471436,55.9645195 67.4471436,51.712471     "/>
			</g>
			<g>
				<g>
					<polygon fill="#44C4A1" points="67.4451675,45.5381851 22.5,45.5381851 32.5548325,33.7057877 77.5,33.7057877      "/>
					<path fill="#3EA69B" d="M33.8900528,34.6543961l-8.4424095,9.9349213h40.6626091l8.4424133-9.9349213H33.8900528z        M66.0264511,43.0080795c-1.182579,0-2.5021896,0.4247627-2.9474525,0.9487419H29.5538483       c0.445261-0.5239792-0.1524467-0.9487419-1.3350239-0.9487419l5.7550297-6.7724457       c1.182579,0,2.5021935-0.4247665,2.9474525-0.9487419h33.5251503c-0.4452591,0.5239754,0.1524506,0.9487419,1.335022,0.9487419       L66.0264511,43.0080795z"/>
					<g>
						<path fill="#3EA69B" d="M47.0541039,42.6608772l0.454792-0.5351944        c-1.4539108-0.068615-2.5851402-0.3347168-3.3913307-0.7995071l1.7498817-0.6378136        c0.6232567,0.3567963,1.3956375,0.5697975,2.3208466,0.6378136l1.2087173-1.4224052        c-1.1348877-0.1318588-1.9008408-0.3048859-2.2968407-0.5202751c-0.3965073-0.2147903-0.414772-0.5339966-0.0552979-0.9570198        c0.3589668-0.4224243,0.9856377-0.7684822,1.8817024-1.036972c0.8965683-0.2690887,1.889843-0.415863,2.9811668-0.4403229        l0.311306-0.3663445h1.0584145l-0.3178978,0.3740997c1.1803169,0.0387802,2.1714478,0.2225494,2.9749146,0.549511        l-1.649353,0.6748085c-0.5333023-0.2297096-1.200386-0.3717117-2.0044518-0.4254112l-1.1711998,1.3782539h0.0498238        c1.1564331,0.1318588,1.9361687,0.3108521,2.3407211,0.5351906c0.4053955,0.2249374,0.4256516,0.5513039,0.0621262,0.9790993        c-0.3635292,0.4277954-1.001152,0.7756386-1.9138794,1.0447273c-0.91222,0.2684898-1.940506,0.4152641-3.0870399,0.4397278        l-0.4487038,0.5280342H47.0541039z M49.9082413,37.9282761c-0.3747253,0.1097832-0.6313858,0.2470131-0.7703056,0.4104919        c-0.139431,0.1640778-0.1385231,0.2929535,0.001194,0.3884163c0.1383705,0.0954628,0.4804268,0.1873474,1.0239792,0.2750549        l1.0779076-1.2684708C50.7273941,37.7534599,50.2829666,37.8184929,49.9082413,37.9282761z M50.6600723,41.1430054        c0.4036865-0.1121674,0.6792145-0.2541695,0.8247261-0.4254074c0.1450043-0.1706429,0.1394119-0.306675-0.0177956-0.4069138        c-0.1590614-0.0996399-0.5314064-0.1939087-1.1175423-0.2822113l-1.1215134,1.3197784        C49.7779465,41.3237915,50.2545319,41.2557716,50.6600723,41.1430054z"/>
					</g>
					<g>
						<path fill="#3EA69B" d="M66.9418411,39.6218567c-0.3342896,0.3933907-1.3250427,0.7122993-2.2128983,0.7122993        c-0.8878517,0-1.3366051-0.3189087-1.0023117-0.7122993c0.3342972-0.3933907,1.3250427-0.7122993,2.2128983-0.7122993        S67.2761383,39.228466,66.9418411,39.6218567z"/>
						<path fill="#3EA69B" d="M36.273674,39.6218567c-0.3342934,0.3933907-1.3250389,0.7122993-2.2128983,0.7122993        c-0.8878555,0-1.3366051-0.3189087-1.0023117-0.7122993s1.3250389-0.7122993,2.2128944-0.7122993        C36.1592178,38.9095573,36.6079674,39.228466,36.273674,39.6218567z"/>
					</g>
				</g>
				<rect x="22.5" y="45.5381851" fill="#3EA69B" width="44.9471397" height="4.2520471"/>
				<polygon fill="#31978C" points="77.5,33.7057877 77.5,37.8320007 67.4471436,49.7902298 67.4471436,45.5381851     "/>
			</g>
			<g>
				<g>
					<polygon fill="#44C4A1" points="67.4451675,39.3638954 22.5,39.3638954 32.5548325,27.5314999 77.5,27.5314999      "/>
					<path fill="#3EA69B" d="M33.8900528,28.4801102l-8.4424095,9.9349174h40.6626091l8.4424133-9.9349174H33.8900528z        M66.0264511,36.8337936c-1.182579,0-2.5021896,0.4247627-2.9474525,0.9487419H29.5538483       c0.445261-0.5239792-0.1524467-0.9487419-1.3350239-0.9487419l5.7550297-6.7724476       c1.182579,0,2.5021935-0.4247646,2.9474525-0.9487419h33.5251503c-0.4452591,0.5239773,0.1524506,0.9487419,1.335022,0.9487419       L66.0264511,36.8337936z"/>
					<g>
						<path fill="#3EA69B" d="M47.0541039,36.4865875l0.454792-0.5351906        c-1.4539108-0.068615-2.5851402-0.3347206-3.3913307-0.7995071l1.7498817-0.6378136        c0.6232567,0.3567924,1.3956375,0.5697937,2.3208466,0.6378136l1.2087173-1.4224052        c-1.1348877-0.1318588-1.9008408-0.3048859-2.2968407-0.5202751c-0.3965073-0.2147942-0.414772-0.5340004-0.0552979-0.9570236        c0.3589668-0.4224243,0.9856377-0.7684784,1.8817024-1.0369701c0.8965683-0.2690868,1.889843-0.415863,2.9811668-0.4403248        l0.311306-0.3663406h1.0584145l-0.3178978,0.3740978c1.1803169,0.0387821,2.1714478,0.2225475,2.9749146,0.549511        l-1.649353,0.6748066c-0.5333023-0.2297077-1.200386-0.3717098-2.0044518-0.4254093l-1.1711998,1.3782558h0.0498238        c1.1564331,0.1318588,1.9361687,0.3108521,2.3407211,0.5351906c0.4053955,0.2249336,0.4256516,0.5513,0.0621262,0.9790955        c-0.3635292,0.4277954-1.001152,0.7756424-1.9138794,1.0447273c-0.91222,0.2684937-1.940506,0.4152679-3.0870399,0.4397316        l-0.4487038,0.5280304H47.0541039z M49.9082413,31.7539883c-0.3747253,0.1097832-0.6313858,0.2470112-0.7703056,0.4104939        c-0.139431,0.1640778-0.1385231,0.2929535,0.001194,0.3884163c0.1383705,0.0954628,0.4804268,0.1873474,1.0239792,0.2750549        l1.0779076-1.2684727C50.7273941,31.5791702,50.2829666,31.6442051,49.9082413,31.7539883z M50.6600723,34.9687195        c0.4036865-0.1121712,0.6792145-0.2541733,0.8247261-0.4254112c0.1450043-0.170639,0.1394119-0.306675-0.0177956-0.4069099        c-0.1590614-0.0996399-0.5314064-0.1939125-1.1175423-0.2822151l-1.1215134,1.3197823        C49.7779465,35.1495018,50.2545319,35.0814857,50.6600723,34.9687195z"/>
					</g>
					<g>
						<path fill="#3EA69B" d="M66.9418411,33.447567c-0.3342896,0.3933945-1.3250427,0.7122993-2.2128983,0.7122993        c-0.8878517,0-1.3366051-0.3189049-1.0023117-0.7122993c0.3342972-0.3933907,1.3250427-0.7122993,2.2128983-0.7122993        S67.2761383,33.0541763,66.9418411,33.447567z"/>
						<path fill="#3EA69B" d="M36.273674,33.447567c-0.3342934,0.3933945-1.3250389,0.7122993-2.2128983,0.7122993        c-0.8878555,0-1.3366051-0.3189049-1.0023117-0.7122993c0.3342934-0.3933907,1.3250389-0.7122993,2.2128944-0.7122993        C36.1592178,32.7352676,36.6079674,33.0541763,36.273674,33.447567z"/>
					</g>
				</g>
				<rect x="22.5" y="39.3638954" fill="#3EA69B" width="44.9471397" height="4.2520471"/>
				<polygon fill="#31978C" points="77.5,27.5314999 77.5,31.6577129 67.4471436,43.6159439 67.4471436,39.3638954     "/>
			</g>
		</g>
		<g>
			<g>
				<g>
					<path fill="#F6C358" d="M69.1237793,68.7199326c0,2.0702744-4.2577133,3.7485657-9.5098228,3.7485657       c-5.2521362,0-9.5098228-1.6782913-9.5098228-3.7485657v-3.272377h19.0196381L69.1237793,68.7199326z"/>
					<g>
						<ellipse fill="#FCD462" cx="59.613945" cy="65.4475555" rx="9.5098276" ry="3.7485745"/>
						<g>
							<path fill="#F6C358" d="M59.6138268,68.7199326c-4.5774117,0-8.3015785-1.4679871-8.3015785-3.2723999         c0-1.8043671,3.7241669-3.2723541,8.3015785-3.2723541c4.5776482,0,8.301815,1.4679871,8.301815,3.2723541         C67.9156418,67.2519455,64.1914749,68.7199326,59.6138268,68.7199326z M59.6138268,62.4654846         c-4.1712875,0-7.5650864,1.337719-7.5650864,2.982048c0,1.6443253,3.3937988,2.9820938,7.5650864,2.9820938         c4.171524,0,7.5653267-1.3377686,7.5653267-2.9820938C67.1791534,63.8032036,63.7853508,62.4654846,59.6138268,62.4654846z"/>
						</g>
						<g>
							<path fill="#F6C358" d="M59.3412361,67.4753418v-0.3571243c-1.1342621-0.0455856-2.1523705-0.2233505-3.0533142-0.5330963         l0.9059944-0.4256058c0.6949005,0.2380829,1.4099998,0.3798141,2.1473198,0.4256058v-0.9491501         c-0.9352837-0.0879898-1.6200829-0.2038422-2.0543976-0.3473663         c-0.4343109-0.1435318-0.6514664-0.3563309-0.6514664-0.6384048c0-0.2820816,0.2494774-0.5127945,0.7504501-0.6923561         c0.5009727-0.1793556,1.1524429-0.2770996,1.9554138-0.2934227v-0.2446518h0.7938843v0.2494316         c0.9100342,0.0262756,1.7705803,0.1485023,2.5816307,0.3670769l-0.8070107,0.4500885         c-0.5464249-0.1532822-1.137291-0.2478409-1.7746201-0.2838669v0.9196854h0.0373688         c0.9514503,0.0881805,1.6503868,0.207222,2.0968208,0.3571243c0.4474411,0.1500931,0.6706581,0.3678741,0.6706581,0.6531296         c0,0.2854614-0.256546,0.5179749-0.7696419,0.6971359c-0.513092,0.1795578-1.1908226,0.277298-2.0352058,0.2936172v0.35215         H59.3412361z M58.4655418,64.3175583c-0.2110939,0.0732574-0.3161392,0.1646271-0.3161392,0.2739105         c0,0.1092911,0.0828247,0.1956863,0.2484665,0.2591858c0.1646347,0.0637054,0.4797668,0.1248169,0.943367,0.1835403         V64.187767C58.9685364,64.2009048,58.6766396,64.2441025,58.4655418,64.3175583z M61.0784874,66.4626923         c0.2312965-0.074852,0.3474503-0.1694031,0.3474503-0.2836685c0-0.1140671-0.0909042-0.2046432-0.2727089-0.2715225         c-0.1828156-0.0668869-0.5221863-0.1295929-1.0181084-0.1883163v0.8804626         C60.5320625,66.5835266,60.84618,66.5377426,61.0784874,66.4626923z"/>
						</g>
					</g>
				</g>
				<g>
					<path fill="#F6C358" d="M70.6822128,64.2832642c0,2.0702744-4.2577133,3.7485657-9.5098228,3.7485657       c-5.2521362,0-9.5098228-1.6782913-9.5098228-3.7485657v-3.272377h19.0196381L70.6822128,64.2832642z"/>
					<g>
						<ellipse fill="#FCD462" cx="61.1723785" cy="61.0108871" rx="9.5098276" ry="3.7485745"/>
						<g>
							<path fill="#F6C358" d="M61.1722603,64.2832642c-4.5774117,0-8.3015785-1.4679871-8.3015785-3.2724037         c0-1.8043633,3.7241669-3.2723541,8.3015785-3.2723541c4.5776482,0,8.301815,1.4679909,8.301815,3.2723541         C69.4740753,62.8152771,65.7499084,64.2832642,61.1722603,64.2832642z M61.1722603,58.0288162         c-4.1712875,0-7.5650864,1.337719-7.5650864,2.9820442c0,1.6443291,3.3937988,2.9820938,7.5650864,2.9820938         c4.1715279,0,7.5653267-1.3377647,7.5653267-2.9820938C68.737587,59.3665352,65.3437881,58.0288162,61.1722603,58.0288162z"/>
						</g>
						<g>
							<path fill="#F6C358" d="M60.8996696,63.0386734v-0.3571243c-1.1342621-0.0455894-2.1523705-0.2233543-3.0533142-0.5331001         l0.9059944-0.425602c0.6949005,0.2380829,1.4099998,0.379818,2.1473198,0.425602v-0.9491463         c-0.9352837-0.0879898-1.6200829-0.203846-2.0543976-0.3473701c-0.4343109-0.143528-0.6514664-0.3563309-0.6514664-0.6384048         c0-0.2820778,0.2494774-0.5127945,0.7504501-0.6923523c0.5009727-0.1793594,1.1524429-0.2770996,1.9554138-0.2934227         v-0.2446518h0.7938843v0.2494278c0.9100342,0.0262794,1.7705803,0.1485023,2.5816307,0.3670769l-0.8070107,0.4500885         c-0.5464249-0.1532784-1.1372948-0.2478371-1.7746201-0.2838669v0.9196854h0.0373688         c0.9514465,0.0881844,1.6503868,0.2072258,2.0968208,0.3571243c0.4474411,0.1500969,0.6706619,0.3678741,0.6706619,0.6531372         c0,0.2854576-0.2565536,0.5179672-0.7696457,0.6971283c-0.513092,0.1795578-1.1908226,0.277298-2.0352058,0.2936211v0.35215         H60.8996696z M60.0239754,59.8808861c-0.2110939,0.0732574-0.3161392,0.1646309-0.3161392,0.2739182         s0.0828247,0.1956787,0.2484665,0.259182c0.1646347,0.0637016,0.4797668,0.1248131,0.943367,0.1835403v-0.8464317         C60.5269699,59.7642365,60.2350731,59.8074341,60.0239754,59.8808861z M62.6369209,62.0260239         c0.2312965-0.0748482,0.3474503-0.1694069,0.3474503-0.2836685c0-0.1140671-0.0909042-0.2046394-0.2727089-0.2715263         c-0.1828156-0.0668869-0.5221863-0.1295929-1.0181084-0.1883163v0.8804665         C62.0904961,62.1468544,62.4046135,62.1010704,62.6369209,62.0260239z"/>
						</g>
					</g>
				</g>
				<g>
					<path fill="#F6C358" d="M67.3561859,59.3747025c0,2.0702705-4.2577171,3.7485619-9.5098228,3.7485619       c-5.2521362,0-9.509819-1.6782913-9.509819-3.7485619v-3.272377h19.0196342L67.3561859,59.3747025z"/>
					<g>
						<ellipse fill="#FCD462" cx="57.8463516" cy="56.1023254" rx="9.5098276" ry="3.7485745"/>
						<g>
							<path fill="#F6C358" d="M57.8462334,59.3747025c-4.5774117,0-8.3015785-1.4679871-8.3015785-3.2724037         c0-1.8043671,3.7241669-3.2723541,8.3015785-3.2723541c4.5776482,0,8.301815,1.4679871,8.301815,3.2723541         C66.1480484,57.9067154,62.4238815,59.3747025,57.8462334,59.3747025z M57.8462334,53.1202545         c-4.1712875,0-7.5650864,1.337719-7.5650864,2.9820442c0,1.6443291,3.3937988,2.9820938,7.5650864,2.9820938         c4.171524,0,7.5653267-1.3377647,7.5653267-2.9820938C65.4115601,54.4579735,62.0177574,53.1202545,57.8462334,53.1202545z"/>
						</g>
						<g>
							<path fill="#F6C358" d="M57.5736465,58.1301079v-0.3571243c-1.1342621-0.0455856-2.1523743-0.2233505-3.053318-0.5330963         l0.9059944-0.4256058c0.6949005,0.2380829,1.4099998,0.379818,2.1473236,0.4256058V56.290741         c-0.9352875-0.0879898-1.6200867-0.203846-2.0544014-0.3473701c-0.4343109-0.143528-0.6514664-0.3563309-0.6514664-0.6384048         c0-0.2820778,0.2494774-0.5127945,0.7504501-0.6923523c0.5009766-0.1793594,1.1524429-0.2770996,1.9554176-0.2934227         v-0.2446518h0.7938805v0.2494278c0.9100342,0.0262756,1.7705803,0.1485023,2.5816345,0.3670769l-0.8070145,0.4500885         c-0.5464249-0.1532784-1.137291-0.2478371-1.7746201-0.2838669v0.9196854h0.0373726         c0.9514465,0.0881844,1.6503868,0.2072258,2.096817,0.3571243c0.4474449,0.1500969,0.6706581,0.3678741,0.6706581,0.6531334         c0,0.2854614-0.256546,0.517971-0.7696419,0.6971321c-0.513092,0.1795578-1.1908226,0.277298-2.0352058,0.2936211v0.3521461         H57.5736465z M56.6979485,54.9723244c-0.2110939,0.0732574-0.3161354,0.1646271-0.3161354,0.2739143         s0.0828209,0.1956825,0.2484665,0.2591858c0.1646347,0.0637016,0.479763,0.1248131,0.943367,0.1835403v-0.8464317         C57.200943,54.8556709,56.9090462,54.8988686,56.6979485,54.9723244z M59.310894,57.1174622         c0.2312965-0.074852,0.3474503-0.1694069,0.3474503-0.2836723c0-0.1140633-0.0909042-0.2046394-0.2727089-0.2715225         c-0.1828156-0.0668869-0.5221825-0.1295929-1.0181084-0.1883163v0.8804665         C58.7644691,57.2382927,59.0785866,57.1925087,59.310894,57.1174622z"/>
						</g>
					</g>
				</g>
				<g>
					<path fill="#F6C358" d="M71.4455948,55.2345352c0,2.0702744-4.2577133,3.7485657-9.5098228,3.7485657       c-5.25214,0-9.5098228-1.6782913-9.5098228-3.7485657v-3.272377h19.0196381L71.4455948,55.2345352z"/>
					<g>
						<ellipse fill="#FCD462" cx="61.9357605" cy="51.9621582" rx="9.5098276" ry="3.7485745"/>
						<g>
							<path fill="#F6C358" d="M61.9356384,55.2345352c-4.5774078,0-8.3015747-1.4679871-8.3015747-3.2723999         c0-1.8043671,3.7241669-3.2723579,8.3015747-3.2723579c4.577652,0,8.3018188,1.4679909,8.3018188,3.2723579         C70.2374573,53.7665482,66.5132904,55.2345352,61.9356384,55.2345352z M61.9356384,48.9800873         c-4.1712837,0-7.5650864,1.337719-7.5650864,2.982048c0,1.6443253,3.3938026,2.98209,7.5650864,2.98209         c4.171524,0,7.5653305-1.3377647,7.5653305-2.98209C69.5009689,50.3178062,66.1071625,48.9800873,61.9356384,48.9800873z"/>
						</g>
						<g>
							<path fill="#F6C358" d="M61.6630516,53.9899445v-0.3571243c-1.1342621-0.0455856-2.1523705-0.2233543-3.0533142-0.5331001         l0.9059944-0.425602c0.6949005,0.2380829,1.4099998,0.379818,2.1473198,0.425602v-0.9491463         c-0.9352875-0.087986-1.6200867-0.203846-2.0543976-0.3473701c-0.4343109-0.143528-0.6514702-0.3563271-0.6514702-0.6384048         s0.2494774-0.5127945,0.7504539-0.6923523c0.5009727-0.1793594,1.1524429-0.2770996,1.9554138-0.2934227v-0.2446518         h0.7938843v0.2494278c0.9100342,0.0262794,1.7705803,0.1485062,2.5816307,0.3670807l-0.8070145,0.4500847         c-0.5464249-0.1532784-1.137291-0.2478371-1.7746162-0.2838669v0.9196854h0.0373688         c0.9514465,0.0881882,1.6503868,0.2072296,2.0968208,0.3571243c0.4474411,0.1500969,0.6706543,0.3678741,0.6706543,0.6531372         c0,0.2854576-0.256546,0.5179672-0.7696381,0.6971283c-0.5130959,0.1795578-1.1908226,0.277298-2.0352058,0.2936211v0.35215         H61.6630516z M60.7873573,50.8321571c-0.2110977,0.0732574-0.3161392,0.1646309-0.3161392,0.2739182         s0.0828209,0.1956787,0.2484665,0.259182c0.1646347,0.0637016,0.479763,0.1248131,0.943367,0.1835403v-0.8464279         C61.2903519,50.7155075,60.998455,50.7587051,60.7873573,50.8321571z M63.4002991,52.9772949         c0.2312965-0.0748482,0.3474503-0.1694069,0.3474503-0.2836685c0-0.1140671-0.0909004-0.2046394-0.2727051-0.2715263         c-0.1828156-0.0668869-0.5221863-0.1295929-1.0181084-0.1883163v0.8804665         C62.8538742,53.0981293,63.1679955,53.0523415,63.4002991,52.9772949z"/>
						</g>
					</g>
				</g>
				<g>
					<path fill="#F6C358" d="M68.1195679,50.3259735c0,2.0702705-4.2577171,3.7485657-9.5098228,3.7485657       c-5.2521362,0-9.5098228-1.6782951-9.5098228-3.7485657v-3.272377h19.0196381L68.1195679,50.3259735z"/>
					<g>
						<ellipse fill="#FCD462" cx="58.6097336" cy="47.0535965" rx="9.5098276" ry="3.7485745"/>
						<g>
							<path fill="#F6C358" d="M58.6096153,50.3259735c-4.5774117,0-8.3015785-1.4679871-8.3015785-3.2724037         c0-1.8043633,3.7241669-3.2723541,8.3015785-3.2723541c4.5776482,0,8.301815,1.4679909,8.301815,3.2723541         C66.9114304,48.8579865,63.1872635,50.3259735,58.6096153,50.3259735z M58.6096153,44.0715256         c-4.1712875,0-7.5650864,1.337719-7.5650864,2.9820442c0,1.6443291,3.3937988,2.9820938,7.5650864,2.9820938         c4.171524,0,7.5653267-1.3377647,7.5653267-2.9820938C66.174942,45.4092445,62.7811394,44.0715256,58.6096153,44.0715256z"/>
						</g>
						<g>
							<path fill="#F6C358" d="M58.3370247,49.0813828v-0.3571243c-1.1342621-0.0455894-2.1523705-0.2233543-3.0533142-0.5331001         l0.9059944-0.425602c0.6949005,0.2380829,1.4099998,0.379818,2.1473198,0.425602V47.242012         c-0.9352837-0.0879898-1.6200829-0.203846-2.0543976-0.3473701c-0.4343109-0.143528-0.6514664-0.3563309-0.6514664-0.6384048         c0-0.2820778,0.2494774-0.5127945,0.7504501-0.6923523c0.5009727-0.1793594,1.1524429-0.2770996,1.9554138-0.2934227         v-0.2446518h0.7938843v0.2494278c0.9100342,0.0262756,1.7705803,0.1485023,2.5816307,0.3670769l-0.8070107,0.4500885         c-0.5464249-0.1532784-1.137291-0.2478371-1.7746201-0.2838669v0.9196854h0.0373688         c0.9514503,0.0881844,1.6503868,0.2072258,2.0968208,0.3571243c0.4474411,0.1500969,0.6706581,0.3678741,0.6706581,0.6531372         c0,0.2854576-0.256546,0.5179672-0.7696419,0.6971283c-0.513092,0.1795578-1.1908226,0.277298-2.0352058,0.2936211v0.35215         H58.3370247z M57.4613304,45.9235954c-0.2110939,0.0732574-0.3161392,0.1646271-0.3161392,0.2739143         s0.0828247,0.1956825,0.2484665,0.2591858c0.1646347,0.0637016,0.4797668,0.1248131,0.943367,0.1835403v-0.8464317         C57.964325,45.8069458,57.6724281,45.8501396,57.4613304,45.9235954z M60.074276,48.0687332         c0.2312965-0.0748482,0.3474503-0.1694069,0.3474503-0.2836685c0-0.1140671-0.0909042-0.2046432-0.2727089-0.2715263         c-0.1828156-0.0668869-0.5221863-0.1295929-1.0181084-0.1883163v0.8804665         C59.5278511,48.1895638,59.8419685,48.1437798,60.074276,48.0687332z"/>
						</g>
					</g>
				</g>
			</g>
			<g>
				<path fill="#FCD462" d="M77.3594971,60.6656609c1.1331863,6.9079018-4.7544327,12.7955132-11.6623306,11.6623344      c-4.1831818-0.6862183-7.5570869-4.0601196-8.2433014-8.2433014      c-1.1331825-6.9078979,4.7544365-12.795517,11.6623306-11.6623344      C73.2993774,53.1085777,76.6732864,56.4824791,77.3594971,60.6656609z"/>
				<g>
					<path fill="#F6C358" d="M67.4065552,71.1863022c-4.8582649,0-8.810936-3.9526672-8.810936-8.8111877       c0-4.8583946,3.9526711-8.8110619,8.810936-8.8110619c4.8585205,0,8.8111877,3.9526672,8.8111877,8.8110619       C76.2177429,67.2336349,72.2650757,71.1863022,67.4065552,71.1863022z M67.4065552,54.3457298       c-4.4272232,0-8.0292587,3.6019058-8.0292587,8.0293846s3.6020355,8.0295105,8.0292587,8.0295105       c4.427475,0,8.0295105-3.6020355,8.0295105-8.0295105S71.8340302,54.3457298,67.4065552,54.3457298z"/>
				</g>
				<g>
					<path fill="#F6C358" d="M67.1172409,67.835144v-0.961586c-1.2038574-0.1227417-2.2844315-0.601387-3.2406578-1.4354095       l0.9615822-1.1459656c0.7375412,0.6410522,1.4965134,1.0226898,2.2790756,1.1459656v-2.555645       c-0.9926682-0.2369156-1.7194901-0.5488663-2.1804504-0.9353218s-0.6914368-0.9594421-0.6914368-1.7189522       c0-0.7595139,0.2647858-1.3807373,0.7964935-1.864212c0.5317154-0.4829369,1.2231522-0.7461128,2.0753937-0.790062v-0.6587448       h0.8425903v0.671608c0.9658737,0.0707512,1.8792191,0.3998566,2.740036,0.9883842l-0.8565292,1.211895       c-0.5799484-0.4127197-1.2070694-0.6673203-1.8835068-0.7643356v2.4763222h0.0396652       c1.0098267,0.2374496,1.7516479,0.5579758,2.2254791,0.961586c0.4748917,0.4041443,0.7118073,0.9905281,0.7118073,1.7586136       c0,0.7686234-0.2722931,1.3946762-0.816864,1.8770752c-0.5445786,0.4834747-1.2638931,0.7466507-2.1600876,0.7906036v0.9481812       H67.1172409z M66.1878204,59.3325729c-0.2240524,0.1972466-0.3355408,0.4432716-0.3355408,0.7375336       c0,0.2942657,0.0879059,0.5268898,0.26371,0.6978722c0.174736,0.1715202,0.509201,0.3360748,1.0012512,0.494194v-2.2790718       C66.7216721,59.0184746,66.4118652,59.1347885,66.1878204,59.3325729z M68.9610825,65.1085129       c0.245491-0.2015381,0.3687668-0.4561386,0.3687668-0.7638016c0-0.3071289-0.0964813-0.5510101-0.2894363-0.7311058       c-0.1940308-0.1800957-0.5542297-0.3489342-1.0805817-0.5070572v2.3707314       C68.381134,65.4338608,68.7145233,65.310585,68.9610825,65.1085129z"/>
				</g>
			</g>
		</g>
	</g>
</g>
</svg>
